<svg width="482" height="106" xmlns="http://www.w3.org/2000/svg" class="w-auto h-6 mr-1.5 fill-current">
 <g>
  <title>Layer 1</title>
  <g fill="fillCurrent" fill-rule="evenodd" id="svg_1" stroke-width="0" stroke="null">
   <path d="m98.21463,20.59028c7.65035,9.20318 11.80836,20.64372 11.78551,32.42994c0,28.70686 -24.1806,51.97985 -54.00733,51.97985c-20.74796,-0.00502 -39.65889,-11.45059 -48.65301,-29.44545c-8.99516,-17.99486 -6.48364,-39.35807 6.4608,-54.96434a54.34119,52.58378 0 0 0 -4.82002,21.78174c0,27.2518 21.05483,49.34254 47.02678,49.34254c25.97247,0 47.0273,-22.09376 47.0273,-49.34254a54.34119,52.58378 0 0 0 -4.82002,-21.78174l-0.00001,0z" id="svg_2" fill="#56aaff" stroke="null"/>
   <path d="m57.09567,2.00003a43.6902,42.27724 0 0 1 24.34676,7.13966c-16.97263,-7.46675 -36.96615,-2.64785 -48.44428,11.67669c-11.47761,14.32454 -11.47761,34.45728 0,48.78182c11.47813,14.32454 31.47165,19.14344 48.44428,11.67618c-15.77632,10.17942 -36.42823,9.42224 -51.38002,-1.88415c-14.9523,-11.30689 -20.89387,-30.65934 -14.78252,-48.14825c6.11135,-17.4889 22.92251,-29.24096 41.8246,-29.23895l-0.00883,-0.00301l0.00001,0.00001z" id="svg_3" fill="#56aaff" stroke="null"/>
   <path d="m64.29741,8.53174c18.89483,-0.00201 34.54498,14.56069 35.76206,33.27856c1.21656,18.71737 -12.41742,35.15617 -31.15699,37.56537c15.37132,-4.34811 25.13235,-19.31075 22.84099,-35.01248c-2.29137,-15.70123 -15.92898,-27.29903 -31.91144,-27.13875c-15.98194,0.16078 -29.38018,12.0304 -31.35119,27.77484l0,-0.89283c-0.00519,-19.64035 16.02971,-35.56667 35.81658,-35.57471l-0.00001,0z" id="svg_4" fill="#56aaff" stroke="null"/>
  </g>
  <text stroke="null" transform="matrix(0.877768, 0, 0, 1, 14.7901, 0)" fill="#cccccc" x="172.26639" y="70" id="svg_5" stroke-width="0" font-size="56" font-family="'Cinzel'" text-anchor="start" xml:space="preserve">Inter Study</text>
 </g>

</svg>